<svg xmlns="http://www.w3.org/2000/svg" viewBox="0 0 32 40" x="0px" y="0px"><title>Artboard 35</title><g data-name="01"><path d="M13,30a1,1,0,0,0,1-1V3a1,1,0,0,0-1-1H7A5.0059,5.0059,0,0,0,2,7V25a5.0059,5.0059,0,0,0,5,5ZM4,25V7A3.0033,3.0033,0,0,1,7,4h5V28H7A3.0033,3.0033,0,0,1,4,25Z"/><path d="M25,2H19a1,1,0,0,0-1,1V29a1,1,0,0,0,1,1h6a5.0059,5.0059,0,0,0,5-5V7A5.0059,5.0059,0,0,0,25,2Zm3,23a3.0033,3.0033,0,0,1-3,3H20V4h5a3.0033,3.0033,0,0,1,3,3Z"/><path d="M8,12A3,3,0,1,0,5,9,3.0033,3.0033,0,0,0,8,12ZM8,8A1,1,0,1,1,7,9,1.0009,1.0009,0,0,1,8,8Z"/><path d="M7.29,15.71a1.1525,1.1525,0,0,0,.33.21.99.99,0,0,0,1.09-.21,1.1728,1.1728,0,0,0,.21-.33.9409.9409,0,0,0,0-.76,1.1588,1.1588,0,0,0-.21-.33,1.1549,1.1549,0,0,0-.33-.21A.9558.9558,0,0,0,7.8,14.02a.6549.6549,0,0,0-.18.0606.5532.5532,0,0,0-.17.09.9571.9571,0,0,0-.16.12,1.0305,1.0305,0,0,0-.21.33A.999.999,0,0,0,7,15a.8435.8435,0,0,0,.08.38A1.1635,1.1635,0,0,0,7.29,15.71Z"/><path d="M8.92,18.62a.7622.7622,0,0,0-.09-.1806q-.0594-.0748-.12-.1495a.9988.9988,0,0,0-1.09-.21,1.027,1.027,0,0,0-.33.21,1.53,1.53,0,0,0-.12.1495.7622.7622,0,0,0-.09.1806.6014.6014,0,0,0-.06.1895A1.2063,1.2063,0,0,0,7,19a.999.999,0,0,0,.08.38,1.1635,1.1635,0,0,0,.21.33.9893.9893,0,0,0,1.09.21,1.1549,1.1549,0,0,0,.33-.21,1.1728,1.1728,0,0,0,.21-.33A.8374.8374,0,0,0,9,19a1.2682,1.2682,0,0,0-.02-.19A.6153.6153,0,0,0,8.92,18.62Z"/><path d="M10.71,16.29a1.0347,1.0347,0,0,0-.33-.21.9978.9978,0,0,0-1.09.21,1.0305,1.0305,0,0,0-.21.33A.999.999,0,0,0,9,17a.8435.8435,0,0,0,.08.38,1.1635,1.1635,0,0,0,.21.33,1.0141,1.0141,0,0,0,1.42,0,1.1728,1.1728,0,0,0,.21-.33.9409.9409,0,0,0,0-.76A1.0378,1.0378,0,0,0,10.71,16.29Z"/><path d="M6.92,16.62a.9854.9854,0,0,0-1.63-.33,1.0305,1.0305,0,0,0-.21.33.9464.9464,0,0,0,0,.76,1.1635,1.1635,0,0,0,.21.33,1.1525,1.1525,0,0,0,.33.21.99.99,0,0,0,1.09-.21,1.1728,1.1728,0,0,0,.21-.33.9409.9409,0,0,0,0-.76Z"/><path d="M23.62,7.92a.9421.9421,0,0,0,.76,0,1.1549,1.1549,0,0,0,.33-.21.9893.9893,0,0,0,.21-1.09,1.0378,1.0378,0,0,0-.21-.33,1.6948,1.6948,0,0,0-.15-.12.7408.7408,0,0,0-.18-.09A.6549.6549,0,0,0,24.2,6.02a1.0179,1.0179,0,0,0-.91.2705,1.0305,1.0305,0,0,0-.21.33.9912.9912,0,0,0,.21,1.09A1.1525,1.1525,0,0,0,23.62,7.92Z"/><path d="M24.55,10.17a.5421.5421,0,0,0-.17-.09.6549.6549,0,0,0-.18-.0606,1.01,1.01,0,0,0-.91.27A1.05,1.05,0,0,0,23,11a.99.99,0,0,0,.29.71,1.1525,1.1525,0,0,0,.33.21.9421.9421,0,0,0,.76,0,1.1549,1.1549,0,0,0,.33-.21A.9919.9919,0,0,0,25,11a1.0327,1.0327,0,0,0-.29-.71C24.66,10.25,24.61,10.21,24.55,10.17Z"/><path d="M26.55,8.17a.5421.5421,0,0,0-.17-.09A.6549.6549,0,0,0,26.2,8.02a1.01,1.01,0,0,0-.91.27A1.05,1.05,0,0,0,25,9a.99.99,0,0,0,.29.71,1.1525,1.1525,0,0,0,.33.21A.99.99,0,0,0,27,9a1.0528,1.0528,0,0,0-.29-.71A.9822.9822,0,0,0,26.55,8.17Z"/><path d="M22,10a.9922.9922,0,0,0,.71-.29A1.0084,1.0084,0,0,0,23,9a1.0528,1.0528,0,0,0-.29-.71,1.1549,1.1549,0,0,0-.33-.21.9954.9954,0,0,0-.76,0,1.027,1.027,0,0,0-.33.21A1.05,1.05,0,0,0,21,9a.99.99,0,0,0,1,1Z"/><path d="M24,14a3,3,0,1,0,3,3A3.0033,3.0033,0,0,0,24,14Zm0,4a1,1,0,1,1,1-1A1.0009,1.0009,0,0,1,24,18Z"/></g><text x="0" y="47" fill="#000000" font-size="5px" font-weight="bold" font-family="'Helvetica Neue', Helvetica, Arial-Unicode, Arial, Sans-serif">Created by ghufronagustian</text><text x="0" y="52" fill="#000000" font-size="5px" font-weight="bold" font-family="'Helvetica Neue', Helvetica, Arial-Unicode, Arial, Sans-serif">from the Noun Project</text></svg>